<svg width="512" height="512" viewBox="0 0 512 512" fill="none" xmlns="http://www.w3.org/2000/svg">
<rect width="512" height="512" fill="white"/>
<path d="M50.8627 461.477C46.5213 455.674 42.9693 450.451 42.9693 449.871C42.9693 449.097 45.7319 448.517 48.8893 448.517C53.428 448.517 54.8094 449.29 54.8094 452.385C54.8094 454.513 56.1907 456.254 57.7694 456.254C59.9401 456.254 60.7294 458.382 60.7294 463.991C60.7294 468.247 60.3347 471.729 59.7427 471.729C59.3481 471.729 55.4014 467.086 50.8627 461.477Z" fill="#101A26"/>
<path d="M374.098 452.966C370.94 452.579 368.572 450.838 368.572 449.29C368.572 447.356 365.81 446.582 357.719 446.582C349.233 446.582 346.865 446.002 346.865 443.681C346.865 441.94 344.497 439.812 341.735 438.845C337.393 437.104 336.801 435.944 337.393 429.754C337.985 422.79 338.38 422.403 345.681 421.823C351.207 421.243 355.153 422.403 360.481 426.078C364.626 428.98 370.546 431.108 374.098 431.108C377.65 431.108 380.412 432.075 380.412 433.042C380.412 434.203 381.794 434.976 383.372 434.976C384.951 434.976 386.332 436.33 386.332 437.878C386.332 439.425 387.714 440.779 389.292 440.779C391.266 440.779 392.252 442.907 392.252 447.55C392.252 453.933 391.858 454.32 385.938 454.126C382.386 453.933 377.058 453.353 374.098 452.966Z" fill="#101A26"/>
<path d="M216.23 427.239C211.691 422.597 210.704 419.889 210.704 411.377C210.704 405.574 211.691 399.965 213.072 398.611C215.835 395.903 232.411 395.516 232.411 398.224C232.411 399.385 241.094 400.158 254.315 400.158H276.022L275.43 407.509L274.838 414.666L262.011 416.213C254.907 416.987 245.435 417.18 241.094 416.6L232.806 415.44L233.792 424.338L234.976 433.042H228.267C223.531 432.849 219.979 431.301 216.23 427.239Z" fill="#101A26"/>
<path d="M358.705 408.089C354.759 407.122 353.575 405.381 353.18 399.578L352.588 392.421H361.271C366.007 392.421 374.098 393.001 379.228 393.581C387.911 394.742 388.306 395.129 388.306 401.125C388.306 406.542 387.516 407.509 382.188 408.669C374.69 410.023 365.218 409.83 358.705 408.089Z" fill="#101A26"/>
<path d="M269.51 394.162C269.115 393.001 265.761 391.454 262.011 390.68C255.697 389.519 255.105 388.746 254.513 381.975C254.118 378.107 254.907 373.464 256.289 371.917C259.051 368.628 276.417 368.242 285.494 371.337C292.006 373.658 292.993 377.333 290.428 390.293C289.244 396.096 288.652 396.29 279.771 396.29C274.443 396.29 269.905 395.322 269.51 394.162Z" fill="#101A26"/>
<path d="M394.818 393.001C393.436 392.614 392.252 390.487 392.252 388.359C392.252 384.877 395.212 383.716 401.725 384.49C405.671 385.07 406.855 379.074 403.303 375.205C398.765 370.176 399.357 369.209 407.053 369.209C413.762 369.209 413.959 369.402 413.959 376.946C413.959 388.746 410.605 394.355 403.303 394.162C399.949 394.162 396.002 393.581 394.818 393.001Z" fill="#101A26"/>
<path d="M373.9 373.658C369.164 372.884 368.375 371.917 368.967 367.661C369.559 363.212 370.546 362.439 377.058 361.858C385.346 361.085 390.279 363.986 390.279 369.209C390.279 372.11 383.964 375.592 380.412 374.625C379.82 374.625 376.86 374.045 373.9 373.658Z" fill="#101A26"/>
<path d="M366.599 331.489C366.599 324.912 366.796 324.719 374.492 324.719C382.188 324.719 382.386 324.912 382.386 331.489C382.386 338.066 382.188 338.259 374.492 338.259C366.796 338.259 366.599 338.066 366.599 331.489Z" fill="#101A26"/>
<path d="M329.105 301.7C326.54 296.864 326.54 278.875 329.105 277.908C330.092 277.714 336.012 272.492 342.129 266.689L353.377 256.05L346.076 254.116C330.487 249.667 322.988 236.32 326.145 217.943C328.513 203.436 337.985 197.052 356.337 197.052C366.204 197.052 369.362 198.02 376.071 202.856C382.583 207.498 384.556 210.206 385.543 216.396L386.924 224.133L394.423 216.783C409.421 202.662 415.143 198.987 422.839 198.987C426.786 198.987 431.325 200.147 432.904 201.695C436.061 204.983 436.653 217.363 433.693 220.845C418.103 239.028 417.511 239.608 410.21 239.608C403.501 239.608 398.173 242.316 398.173 245.604C398.173 246.378 404.093 247.345 411.197 247.732C423.431 248.506 424.813 249.086 430.93 255.663C437.048 262.046 437.64 263.981 437.64 274.233C437.64 285.645 434.68 295.704 431.325 295.704C430.535 295.704 429.746 297.058 429.746 298.605C429.746 303.054 421.458 305.376 406.461 305.376C386.135 305.376 378.439 297.638 378.439 277.328C378.439 266.495 380.412 260.692 385.938 255.276C388.306 252.955 388.306 252.181 386.135 251.407C384.754 251.021 383.175 251.601 382.78 252.955C382.386 254.116 380.807 255.083 379.228 255.083C377.255 255.083 376.466 257.791 376.466 265.722C376.466 277.714 372.519 284.098 365.218 284.098C361.666 284.098 360.679 285.258 360.679 288.934C360.679 291.642 358.311 296.478 355.351 299.573C351.009 304.408 348.641 305.376 340.748 305.376C333.249 305.376 330.684 304.602 329.105 301.7Z" fill="#101A26"/>
<path d="M129.797 278.295C129.797 275.2 128.415 274.426 123.877 274.426C120.719 274.426 117.957 273.652 117.957 272.879C117.957 271.911 114.799 270.171 111.05 268.623C105.13 266.302 104.143 265.141 104.143 259.532C104.143 255.856 105.13 253.148 106.511 253.148C107.893 253.148 106.906 251.794 104.538 250.053C101.578 247.926 100.196 245.218 100.196 240.382C100.196 229.163 110.063 222.779 124.863 224.52C128.613 224.907 131.77 224.52 131.77 223.746C131.77 222.973 135.322 222.199 139.861 222.199C150.714 222.199 164.33 231.29 166.106 239.801C168.672 252.375 167.882 255.083 161.568 255.083C156.437 255.083 155.648 255.856 155.056 261.466C154.661 265.528 153.082 268.236 150.122 269.59C147.754 270.557 145.386 273.846 144.794 276.747C143.808 281.39 142.821 282.163 136.703 282.163C131.178 282.163 129.797 281.39 129.797 278.295Z" fill="#101A26"/>
<path d="M242.278 258.951C242.278 256.824 240.896 255.083 239.318 255.083C236.95 255.083 236.358 252.181 236.358 240.575C236.358 228.582 236.95 226.068 239.515 226.068C241.291 226.068 243.067 224.327 243.659 222.199C244.448 219.297 246.422 218.33 251.75 218.33H258.657L257.275 228.582C256.683 233.998 256.091 244.057 256.091 250.827V262.82H249.184C243.659 262.82 242.278 262.046 242.278 258.951Z" fill="#101A26"/>
<path d="M258.065 248.506V235.739H264.774C271.286 235.739 271.681 236.126 272.865 244.25C275.035 257.404 273.851 259.919 265.366 260.499L258.065 261.079V248.506Z" fill="#101A26"/>
<path d="M246.224 205.757C246.224 199.374 246.619 198.987 253.131 198.987C259.643 198.987 260.038 199.374 260.038 205.757C260.038 212.14 259.643 212.527 253.131 212.527C246.619 212.527 246.224 212.14 246.224 205.757Z" fill="#101A26"/>
<path d="M40.9959 198.987C40.9959 198.02 39.6146 197.052 38.0359 197.052C36.4572 197.052 35.0758 195.698 35.0758 194.151C35.0758 192.604 33.2998 191.249 31.3265 191.249C28.3665 191.249 27.3798 189.509 26.9851 182.738C26.5904 178.096 26.5904 169.778 26.7878 164.362C27.3798 156.431 28.1691 154.497 31.1291 154.497C35.2732 154.497 37.0492 158.172 37.0492 166.296C37.0492 171.519 37.6412 171.906 44.7453 171.906C52.0467 171.906 52.4413 172.293 53.6253 179.257C54.2173 183.125 54.8094 189.702 54.8094 193.764C54.8094 200.728 54.612 200.921 47.9026 200.921C44.1533 200.921 40.9959 200.147 40.9959 198.987Z" fill="#101A26"/>
<path d="M122.89 500.744C104.34 499.003 90.7244 494.748 78.4896 486.623C67.2415 479.273 54.8094 467.86 54.8094 464.765C54.8094 463.411 53.428 462.057 51.8493 461.283C50.2706 460.703 48.8893 459.349 48.8893 458.382C48.8893 457.221 46.7186 454.32 44.1533 451.418C41.5879 448.71 37.2465 439.812 34.4838 431.495L29.5505 416.6L29.1558 301.507C28.7611 238.254 28.7611 185.06 28.9584 183.319C29.1558 180.03 39.0225 178.676 39.0225 181.771C39.0225 182.738 40.7986 183.512 42.9692 183.512C45.3373 183.512 46.916 182.158 46.916 180.417C46.916 177.903 45.1399 177.516 37.0492 178.096C31.3265 178.483 26.9851 177.903 26.3931 176.548C25.0118 173.26 27.5771 164.169 29.3531 165.329C30.3398 165.91 30.1425 164.169 28.9584 161.461C25.6037 154.304 29.5505 102.85 34.4838 88.3426C46.9159 52.9441 76.7136 25.8634 114.01 16.1917C130.389 11.9361 382.78 11.9361 399.357 16.1917C421.655 21.8012 442.376 34.7613 457.176 52.1704C469.41 66.4845 475.528 76.5431 480.264 90.6638C483.816 100.722 484.013 110.201 484.013 258.951V416.6L479.672 430.141C469.41 461.477 442.77 486.236 408.039 496.488C396.002 500.164 387.911 500.55 266.945 501.324C196.496 501.711 131.573 501.518 122.89 500.744ZM410.013 468.44C422.05 462.637 438.626 448.71 444.744 439.619C446.322 437.491 449.874 429.173 452.834 421.243L458.162 406.928L458.952 289.514L459.544 171.906L246.816 172.293C129.797 172.486 38.6279 172.873 43.9559 173.26L53.8227 174.034L53.2307 283.904C52.836 351.606 53.2307 397.837 54.4147 404.22C58.7561 426.465 64.2815 436.911 79.6736 451.999C94.4737 466.313 102.959 471.342 116.97 473.857C121.311 474.63 186.235 475.017 261.025 474.824L397.186 474.63L410.013 468.44ZM48.8893 191.443C48.8893 188.541 47.9026 187.961 44.5479 188.928C40.7986 189.895 40.6012 190.282 43.5613 190.863C45.3373 191.249 46.916 192.41 46.916 193.377C46.916 194.344 47.3106 195.118 47.9026 195.118C48.4946 195.118 48.8893 193.377 48.8893 191.443ZM399.751 123.741C414.946 116.004 423.234 102.463 420.669 89.3097C419.09 80.7986 407.645 68.6123 397.778 64.5502C390.279 61.6487 377.255 61.4552 257.078 61.6487C170.448 61.6487 122.101 62.4224 116.97 63.7764C107.498 66.2911 93.487 79.8315 91.711 88.1491C88.9483 102.076 97.0391 115.81 112.826 123.548C120.719 127.223 124.469 127.416 256.683 127.416C386.332 127.416 392.647 127.223 399.751 123.741Z" fill="#1D2833"/>
<path d="M355.943 450.064C349.036 447.55 340.945 440.973 340.945 437.684C340.945 436.524 339.761 434.976 338.38 434.396C333.052 432.462 331.079 418.148 331.079 383.91C331.079 345.61 331.671 343.482 344.695 331.876C354.759 322.978 357.521 322.398 384.951 323.172C410.21 323.752 412.973 324.912 424.615 339.033L430.733 346.384V387.585V428.786L424.813 437.104C415.341 450.064 408.829 452.385 383.372 452.192C371.532 452.192 359.1 451.225 355.943 450.064ZM356.535 437.878C359.889 439.812 374.492 440.586 374.492 438.845C374.492 437.684 371.73 436.911 368.178 436.911C364.626 436.911 358.705 434.783 354.561 431.881C347.655 427.239 341.34 426.852 344.103 431.495C344.892 432.849 345.879 432.655 346.865 431.108C347.852 429.56 349.233 430.914 351.009 434.783C352.588 438.071 353.969 440.006 354.364 438.845C354.759 437.684 355.745 437.298 356.535 437.878ZM380.412 401.899C381.991 401.706 379.426 400.932 374.69 399.965C369.756 398.998 365.415 398.804 364.823 399.385C362.85 401.319 369.559 404.027 373.506 403.06C375.676 402.673 378.834 402.093 380.412 401.899ZM408.039 377.333C408.039 375.979 407.25 375.205 406.263 375.979C405.277 376.559 403.895 376.172 403.106 375.012C402.514 374.045 398.172 373.077 393.831 373.077C388.898 373.077 384.162 371.723 381.794 369.789C378.439 366.694 377.847 366.694 375.874 369.402C374.492 371.143 369.954 373.271 365.612 374.238C359.692 375.592 357.521 377.14 357.127 380.428C356.337 384.877 356.535 384.877 378.636 384.49C395.212 384.297 401.133 384.877 401.725 386.618C402.711 389.326 407.842 381.589 408.039 377.333Z" fill="#1D2833"/>
<path d="M106.906 437.684C95.4604 433.622 82.0416 420.469 78.6869 410.023C68.6228 376.559 78.8843 348.898 105.722 337.099C119.535 330.909 142.426 330.715 155.45 336.518C165.514 340.967 177.947 351.993 182.485 360.311C186.629 368.048 188.011 391.067 185.051 404.994C183.077 415.053 181.301 417.954 172.421 426.272C166.304 432.268 159.2 436.911 154.266 438.458C143.413 441.553 116.97 441.166 106.906 437.684ZM152.49 386.618C151.898 385.457 142.229 384.684 130.586 384.684C117.167 384.684 110.261 385.457 111.05 386.618C111.642 387.779 121.311 388.552 132.954 388.552C146.373 388.552 153.28 387.779 152.49 386.618Z" fill="#1D2833"/>
<path d="M233.398 438.265C224.715 434.976 218.598 430.527 218.598 427.819C218.598 426.465 217.611 425.305 216.427 425.305C213.467 425.305 209.915 421.436 205.573 413.699C202.811 408.476 202.021 402.673 201.824 388.552C201.824 365.34 203.008 361.278 213.072 350.639C226.096 336.905 236.752 332.456 257.078 332.456C271.089 332.456 275.627 333.23 283.323 337.099C309.569 350.252 319.83 378.687 309.174 409.443C304.438 423.177 292.993 434.783 280.166 438.458C270.299 441.36 241.094 441.166 233.398 438.265ZM226.491 421.823C226.491 419.308 224.123 417.567 222.15 418.728C220.176 419.889 221.952 423.37 224.715 423.37C225.702 423.37 226.491 422.597 226.491 421.823ZM268.326 408.089C269.707 406.928 228.662 406.928 226.491 408.089C225.899 408.282 230.438 409.056 236.358 409.636C248.395 410.991 266.155 410.023 268.326 408.089ZM222.742 407.122C220.768 404.994 221.163 404.22 223.926 403.447C226.886 402.673 226.886 402.479 224.32 402.286C222.544 402.286 219.782 403.64 218.4 405.381C216.822 407.315 216.624 408.089 218.006 407.315C219.19 406.542 220.768 406.735 221.558 407.896C222.15 408.863 223.334 409.83 223.926 409.83C224.518 409.83 223.926 408.669 222.742 407.122ZM280.758 398.224C279.969 397.063 269.905 396.29 257.078 396.29C244.251 396.29 234.187 397.063 233.398 398.224C232.608 399.384 240.896 400.158 257.078 400.158C273.259 400.158 281.547 399.384 280.758 398.224ZM283.718 387.778C283.718 386.231 284.31 383.716 284.902 382.169C286.086 378.88 275.233 374.431 268.326 375.592C258.854 376.946 257.67 384.683 266.945 384.683C269.51 384.683 272.865 386.038 274.246 387.585C277.601 391.067 283.718 391.26 283.718 387.778Z" fill="#1D2833"/>
<path d="M106.116 303.441C92.1057 298.799 82.6336 288.353 77.7002 272.105C70.7935 249.28 76.9109 222.779 92.1057 210.206C101.972 202.082 112.431 198.987 129.994 198.987C154.661 198.987 170.25 206.531 180.315 223.36C186.827 234.192 188.8 254.116 185.051 271.138C183.077 280.423 181.104 283.904 172.618 292.609C164.922 300.153 159.989 303.248 153.082 304.989C139.466 308.471 118.549 307.697 106.116 303.441ZM142.426 264.754C144.005 264.754 146.176 263.4 147.557 261.853C149.728 259.338 149.136 258.951 144.4 258.951L138.677 258.758L143.216 255.276C145.584 253.148 147.557 250.634 147.557 249.667C147.557 246.959 154.266 245.604 157.818 247.539C160.186 248.893 160.581 248.119 159.792 244.25C159.2 241.349 155.45 237.287 150.32 233.805C140.453 227.035 137.69 226.648 137.69 231.871C137.69 233.998 136.309 235.739 134.73 235.739C132.954 235.739 131.77 237.48 131.77 240.575C131.77 246.959 126.639 246.959 125.061 240.575C124.271 237.867 124.271 234.772 124.863 233.612C127.034 230.323 120.325 229.549 114.405 232.644C102.564 238.641 106.116 246.378 121.509 247.152C122.693 247.345 123.877 249.086 123.877 251.214C123.877 253.729 125.258 255.083 127.823 255.083C130.981 255.083 131.77 256.437 131.967 261.466C132.165 265.915 132.559 266.495 133.151 263.4C134.533 256.437 137.69 258.178 137.887 266.302C138.085 270.751 138.479 271.718 139.071 269.203C139.466 266.689 141.045 264.754 142.426 264.754ZM124.666 261.853C125.258 259.919 124.469 258.951 121.903 258.951C117.957 258.951 115.391 261.466 117.365 263.594C119.535 265.722 123.482 264.754 124.666 261.853Z" fill="#1D2833"/>
<path d="M233.398 304.408C226.294 302.474 221.558 299.573 216.427 293.963C204.192 280.423 201.824 274.039 201.824 252.181C201.824 234.579 202.416 232.064 207.349 223.746C217.808 206.144 231.819 198.987 255.894 198.987C274.838 198.987 283.916 201.888 294.966 211.367C310.95 225.1 317.265 249.86 310.358 271.331C305.622 286.032 292.796 300.153 280.363 304.215C269.313 307.89 247.211 308.084 233.398 304.408ZM258.459 244.831C256.683 231.097 256.683 231.29 256.683 255.083C256.486 276.36 256.881 278.101 258.459 269.01C259.643 262.433 259.643 253.729 258.459 244.831ZM249.777 248.313C249.579 241.349 248.79 239.608 245.83 239.608C243.264 239.608 242.278 240.962 242.278 244.444C242.278 247.539 243.462 249.28 245.238 249.28C246.816 249.28 248.198 251.021 248.198 253.148C248.198 255.276 248.592 257.017 249.185 257.017C249.777 257.017 249.974 253.148 249.777 248.313ZM266.155 246.378C264.379 240.575 264.379 240.575 264.182 248.313C263.985 253.148 264.577 255.276 265.958 253.922C267.142 252.762 267.142 249.86 266.155 246.378ZM250.171 233.998C250.171 231.097 249.185 230.517 245.83 231.484C242.08 232.451 241.883 232.838 244.843 233.418C246.619 233.805 248.198 234.966 248.198 235.933C248.198 236.9 248.592 237.674 249.185 237.674C249.777 237.674 250.171 235.933 250.171 233.998Z" fill="#1D2833"/>
<path d="M396.199 301.507C396.199 298.799 397.186 298.025 399.554 298.992C402.317 299.959 402.514 299.186 401.527 293.769L400.146 287.386L408.434 288.547C413.17 289.127 415.341 289.127 413.565 288.547C411.591 288.16 410.013 286.806 410.013 285.839C410.013 284.872 409.421 284.291 408.631 284.291C407.645 284.485 406.066 284.485 404.685 284.291C401.33 284.098 403.895 278.295 407.25 278.295C408.829 278.295 410.013 276.554 410.013 274.426C410.013 272.298 411.197 270.557 412.775 270.557C416.722 270.557 417.906 277.521 414.551 281.97C412.183 285.645 412.183 286.032 414.749 286.032C416.525 286.032 417.906 287.386 417.906 288.934C417.906 290.481 418.893 291.835 420.077 291.835C421.261 291.835 421.655 293.189 421.063 294.93C420.471 296.478 420.669 297.251 421.853 296.671C424.418 295.124 424.418 289.901 421.853 289.901C420.866 289.901 419.879 289.127 419.879 287.966C419.879 285.065 425.799 285.645 425.799 288.547C425.997 289.707 427.181 288.74 428.759 286.032C431.522 281.39 431.522 281.39 431.719 290.094C431.719 298.412 431.325 299.379 425.01 302.281C421.261 304.021 413.367 305.376 407.25 305.376C397.58 305.376 396.199 304.989 396.199 301.507Z" fill="#1D2833"/>
<path d="M348.641 294.93C350.615 292.609 350.22 291.642 347.26 290.094C345.089 288.934 342.721 288.74 341.735 289.514C340.945 290.288 341.537 288.74 343.313 286.032C345.089 283.324 347.457 281.39 348.641 281.777C349.825 281.97 350.615 281.196 350.417 280.036C349.628 276.941 360.679 273.265 362.455 276.167C364.823 279.649 370.94 270.944 369.362 266.302C368.375 263.207 367.783 262.82 366.402 264.948C365.218 266.882 364.626 266.495 364.626 263.207C364.626 260.692 365.415 259.338 366.599 259.919C367.783 260.499 368.572 260.112 368.572 259.145C368.572 255.276 364.034 257.017 357.719 263.4C342.721 278.101 334.631 284.872 336.604 281.003C337.788 278.875 340.156 275.974 341.735 274.426C343.511 273.072 344.892 269.977 344.892 267.462C344.892 263.787 345.879 262.82 349.825 262.82C353.377 262.82 354.759 261.853 354.759 258.951C354.759 256.824 353.969 255.083 352.785 255.083C351.799 255.083 350.812 253.535 350.812 251.794C350.812 249.28 352.588 248.119 356.732 247.926C364.428 247.345 371.532 242.703 376.663 234.579C379.031 230.71 382.386 228.002 384.556 228.002C386.727 228.002 388.306 226.648 388.306 224.907C388.306 221.232 405.277 205.177 411.591 202.662C418.893 199.954 427.773 200.534 427.773 203.823C427.773 205.37 429.154 206.724 430.733 206.724C432.904 206.724 433.693 208.852 433.693 214.462C433.693 220.071 432.904 222.199 430.733 222.199C429.154 222.199 427.773 223.553 427.773 225.1C427.773 226.648 421.458 233.805 413.565 240.962C405.869 248.119 393.634 259.919 386.332 267.269C379.228 274.426 372.322 280.229 370.94 280.229C369.559 280.229 368.572 281.39 368.572 282.744C368.375 287.386 356.929 297.638 351.601 297.638C347.26 297.638 346.865 297.058 348.641 294.93ZM351.996 286.999C349.825 285.452 347.655 284.678 347.063 285.258C345.879 286.419 350.812 289.901 353.772 289.901C354.956 289.707 353.969 288.547 351.996 286.999ZM385.543 241.542C390.476 241.542 397.975 234.966 398.173 230.71C398.173 229.549 399.949 226.261 402.119 223.553C409.618 214.268 406.066 216.202 393.436 228.389C386.53 235.159 379.426 241.736 377.65 243.09C375.874 244.444 374.492 246.572 374.492 247.926C374.492 249.086 375.874 248.119 377.65 245.798C379.426 243.283 382.78 241.542 385.543 241.542ZM425.799 216.396C425.799 215.429 424.615 214.268 423.431 213.688C422.05 212.914 422.839 212.914 425.405 213.301C430.338 214.268 431.128 211.56 426.983 207.498C423.037 203.823 421.261 204.016 416.327 209.239C412.973 212.721 412.578 214.268 414.354 216.009C416.13 217.75 416.13 218.33 413.959 218.33C411.789 218.524 411.986 219.297 414.749 221.232C418.498 224.133 418.498 224.133 414.749 228.582C412.775 231.097 414.354 229.549 418.498 225.487C422.445 221.425 425.799 217.363 425.799 216.396Z" fill="#1D2833"/>
<path d="M125.653 481.014C100.394 479.079 91.5137 475.017 73.7535 457.802C58.3614 442.907 53.0333 432.655 48.692 410.797C47.5079 404.994 46.916 355.862 47.1133 289.901L47.508 178.676L36.8518 177.709C29.9451 177.129 26.1958 175.968 26.3931 174.421C27.1824 165.523 11.9876 166.103 256.091 166.103H485V171.906C485 177.516 484.803 177.709 475.331 177.709H465.464L464.872 295.317L464.082 412.731L458.754 427.046C455.794 434.976 452.242 443.294 450.664 445.422C444.546 454.513 427.97 468.44 415.933 474.243L403.106 480.433L332.065 481.014C292.993 481.207 234.779 481.594 202.811 481.981C170.842 482.174 136.111 481.787 125.653 481.014ZM409.815 440.779C412.973 438.652 417.709 433.622 420.274 429.56C424.615 422.79 424.813 420.662 424.813 387.198V352.187L418.695 344.836C407.842 331.683 403.698 329.555 385.148 328.781C364.231 328.007 360.482 328.975 350.615 337.679C337.788 349.092 336.999 351.8 336.999 384.297C336.999 416.213 339.169 426.078 348.444 435.557C354.956 442.52 360.482 444.648 374.492 446.389C388.7 448.13 402.711 445.809 409.815 440.779ZM148.346 432.655C153.28 431.108 160.384 426.465 166.501 420.469C175.381 412.151 177.157 409.25 179.131 399.385C181.696 387.198 180.512 373.464 176.17 365.34C172.026 357.603 159.2 346.577 149.53 342.321C131.573 334.391 108.879 339.613 93.8817 354.895C75.9242 373.464 78.0949 407.315 98.4204 423.177C112.431 434.396 130.586 437.684 148.346 432.655ZM274.246 432.655C287.073 428.98 298.518 417.374 303.254 403.64C308.188 389.132 308.385 384.49 304.241 371.917C295.164 345.416 261.814 330.522 237.739 342.321C227.872 347.157 215.44 358.376 211.099 366.307C206.363 375.399 206.955 399.191 212.283 409.25C217.216 418.534 229.056 428.98 238.528 432.268C247.211 435.363 264.379 435.557 274.246 432.655ZM147.162 299.186C154.069 297.445 159.002 294.35 166.698 286.806C175.184 278.101 177.157 274.62 179.131 265.335C184.853 238.834 172.618 216.396 147.754 207.691C108.682 194.151 71.9775 227.808 83.6203 266.495C91.9084 293.77 116.97 306.73 147.162 299.186ZM274.443 298.412C293.19 292.222 309.569 265.915 306.214 247.926C303.846 234.966 298.321 225.1 289.046 217.17C264.971 196.472 229.648 202.082 213.467 229.163C208.928 236.513 208.139 240.575 207.941 251.988C207.941 267.656 211.099 275.974 222.347 288.16C233.398 300.346 255.697 304.795 274.443 298.412ZM386.135 257.017C410.21 233.612 429.746 213.494 429.746 212.334C429.746 211.173 428.365 209.045 426.589 207.304C424.023 204.596 422.839 204.596 418.498 206.918C408.237 212.14 333.052 285.065 333.052 289.514C333.052 293.77 336.999 299.573 339.959 299.573C341.537 299.573 362.258 280.423 386.135 257.017ZM418.695 297.638C424.615 295.51 431.72 282.744 431.72 274.426C431.72 260.112 409.421 248.119 397.186 255.856C390.476 260.112 384.359 270.171 384.359 276.941C384.359 283.904 388.898 292.609 394.621 296.478C399.554 299.959 411.197 300.54 418.695 297.638ZM369.164 243.09C376.466 238.061 381.004 227.615 379.426 219.878C377.847 212.721 364.428 202.856 356.337 202.856C344.695 202.856 333.644 211.56 332.855 221.232C332.065 232.064 333.052 235.352 338.972 240.962C349.036 250.053 358.113 250.827 369.164 243.09Z" fill="#FAFBF7"/>
<path d="M357.916 396.483C357.324 395.516 357.324 393.388 357.916 391.647C358.903 388.939 362.455 388.552 382.188 388.939C403.501 389.519 405.079 389.713 405.079 393.388C405.079 397.063 403.501 397.257 381.991 397.837C369.164 398.03 358.508 397.45 357.916 396.483Z" fill="#FAFBF7"/>
<path d="M368.178 385.264C371.73 384.877 377.058 384.877 380.018 385.264C382.978 385.651 380.018 386.038 373.506 386.038C366.994 386.038 364.626 385.651 368.178 385.264Z" fill="#FAFBF7"/>
<path d="M103.749 392.227C101.775 391.26 100.196 388.746 100.196 387.005C100.196 379.848 104.143 378.88 130.981 378.88C152.096 378.88 157.818 379.461 160.186 381.975C163.936 385.651 164.133 388.939 160.976 392.034C158.016 394.935 108.682 395.129 103.749 392.227Z" fill="#FAFBF7"/>
<path d="M226.886 398.804L227.478 391.454H257.078H286.678L287.27 398.804L287.862 405.961H257.078H226.294L226.886 398.804Z" fill="#FAFBF7"/>
<path d="M125.85 268.623V258.951H113.813C101.972 258.951 101.972 258.951 102.564 253.729C103.156 248.699 103.748 248.313 114.405 247.732L125.653 247.152L126.245 238.061C126.837 229.743 127.231 228.969 131.77 228.969C136.309 228.969 136.703 229.743 137.295 238.254L137.887 247.345H148.346C159.397 247.345 162.554 249.86 160.186 256.05C159.2 258.178 156.042 258.951 148.346 258.951H137.69V266.302C137.69 274.233 134.927 278.295 129.402 278.295C126.442 278.295 125.85 276.554 125.85 268.623Z" fill="#FAFBF7"/>
<path d="M252.342 285.258C250.763 283.518 250.171 273.459 250.566 254.116C251.158 229.549 251.553 225.294 254.513 223.36C257.275 221.812 258.657 222.005 261.025 224.327C263.393 226.648 264.182 233.031 264.577 254.889C264.971 280.229 264.577 282.744 261.222 285.258C256.289 288.547 255.105 288.74 252.342 285.258Z" fill="#FAFBF7"/>
<path d="M402.119 282.163C396.199 276.36 399.554 269.59 408.237 269.59C414.551 269.59 414.946 269.977 414.946 276.167C414.946 284.678 408.039 287.967 402.119 282.163Z" fill="#FAFBF7"/>
<path d="M349.036 230.13C346.471 225.487 348.049 220.845 353.18 218.137C358.706 215.235 363.047 219.297 362.258 226.841C361.863 231.677 360.679 233.031 356.337 233.418C352.785 233.805 350.417 232.838 349.036 230.13Z" fill="#FAFBF7"/>
<path d="M106.709 136.321C89.343 128.004 81.8443 112.336 85.3963 91.8315C87.1724 81.3861 99.9991 68.0392 111.05 65.1377C116.181 63.9771 167.685 63.0099 257.078 62.8164C412.578 62.4296 405.671 61.8493 418.893 76.9371C426.392 85.8351 428.957 96.474 426.786 110.401C425.207 120.847 417.117 131.099 405.869 136.708C398.567 140.19 393.042 140.383 256.683 140.383C116.773 140.383 114.799 140.383 106.709 136.321Z" fill="#FAFBF7"/>
</svg>
